name Walk6.mot
datacolumns 19
datarows 27
range 2.14000000 2.27000000
endheader

                time	   L_ground_force_vx	   L_ground_force_vy	   L_ground_force_vz	   L_ground_force_px	   L_ground_force_py	   L_ground_force_pz	   R_ground_force_vx	   R_ground_force_vy	   R_ground_force_vz	   R_ground_force_px	   R_ground_force_py	   R_ground_force_pz	   L_ground_torque_x	   L_ground_torque_y	   L_ground_torque_z	   R_ground_torque_x	   R_ground_torque_y	   R_ground_torque_z	
          2.14000000	         -0.00070157	          0.04507481	          0.00168639	         -0.00009058	          0.00000000	         -0.00002622	        -12.70500941	        838.14493532	        -34.90538701	          0.48010218	          0.00000000	          0.12916800	          0.00000000	          0.00033649	          0.00000000	          0.00000000	         -0.48335110	          0.00000000	
          2.14500000	         -0.00564704	          0.02522963	          0.00232455	         -0.00007011	          0.00000000	         -0.00002200	        -10.24620540	        829.26575605	        -34.28952408	          0.48099079	          0.00000000	          0.12958077	          0.00000000	          0.00024530	          0.00000000	          0.00000000	         -0.88198273	          0.00000000	
          2.15000000	         -0.00837187	          0.01050794	          0.00254994	         -0.00005144	          0.00000000	         -0.00001756	         -7.92075800	        821.18774041	        -33.65724227	          0.48188944	          0.00000000	          0.12997398	          0.00000000	          0.00016743	          0.00000000	          0.00000000	         -1.26331446	          0.00000000	
          2.15500000	         -0.00945713	          0.00023616	          0.00249281	         -0.00003540	          0.00000000	         -0.00001332	         -5.72071189	        813.95052180	        -33.05596622	          0.48280963	          0.00000000	          0.13035248	          0.00000000	          0.00010425	          0.00000000	          0.00000000	         -1.62828016	          0.00000000	
          2.16000000	         -0.00940515	         -0.00636961	          0.00225903	         -0.00002232	          0.00000000	         -0.00000955	         -3.63496294	        807.59477757	        -32.52615348	          0.48376266	          0.00000000	          0.13072090	          0.00000000	          0.00005548	          0.00000000	          0.00000000	         -1.97825979	          0.00000000	
          2.16500000	         -0.00862798	         -0.01010201	          0.00193044	         -0.00001216	          0.00000000	         -0.00000637	         -1.65069392	        802.15241971	        -32.09968682	          0.48475857	          0.00000000	          0.13108246	          0.00000000	          0.00001983	          0.00000000	          0.00000000	         -2.31499162	          0.00000000	
          2.17000000	         -0.00744722	         -0.01169658	          0.00156705	         -0.00000469	          0.00000000	         -0.00000383	          0.24506313	        797.64464065	        -31.79905753	          0.48580545	          0.00000000	          0.13143906	          0.00000000	         -0.00000461	          0.00000000	          0.00000000	         -2.64022327	          0.00000000	
          2.17500000	         -0.00610104	         -0.01179408	          0.00121008	          0.00000048	          0.00000000	         -0.00000190	          2.06388827	        794.08384844	        -31.63763223	          0.48690915	          0.00000000	          0.13179221	          0.00000000	         -0.00001991	          0.00000000	          0.00000000	         -2.95562247	          0.00000000	
          2.18000000	         -0.00475525	         -0.01092384	          0.00088546	          0.00000375	          0.00000000	         -0.00000051	          3.81390096	        791.47650947	        -31.62015335	          0.48807383	          0.00000000	          0.13214306	          0.00000000	         -0.00002815	          0.00000000	          0.00000000	         -3.26253447	          0.00000000	
          2.18500000	         -0.00351613	         -0.00950183	          0.00060726	          0.00000556	          0.00000000	          0.00000042	          5.49922241	        789.82647296	        -31.74354335	          0.48930357	          0.00000000	          0.13249222	          0.00000000	         -0.00003121	          0.00000000	          0.00000000	         -3.56162025	          0.00000000	
          2.19000000	         -0.00244342	         -0.00783844	          0.00038083	          0.00000627	          0.00000000	          0.00000098	          7.12094733	        789.13315858	        -31.99827876	          0.49060356	          0.00000000	          0.13283944	          0.00000000	         -0.00003070	          0.00000000	          0.00000000	         -3.85290125	          0.00000000	
          2.19500000	         -0.00156227	         -0.00615182	          0.00020550	          0.00000624	          0.00000000	          0.00000127	          8.67891127	        789.38835644	        -32.37037891	          0.49197915	          0.00000000	          0.13318428	          0.00000000	         -0.00002795	          0.00000000	          0.00000000	         -4.13635208	          0.00000000	
          2.20000000	         -0.00087365	         -0.00458368	          0.00007682	          0.00000572	          0.00000000	          0.00000135	         10.17366363	        790.57378964	        -32.84244839	          0.49343442	          0.00000000	          0.13352661	          0.00000000	         -0.00002397	          0.00000000	          0.00000000	         -4.41242080	          0.00000000	
          2.20500000	         -0.00036296	         -0.00321555	         -0.00001178	          0.00000494	          0.00000000	          0.00000129	         11.60753724	        792.66169003	        -33.39467286	          0.49497315	          0.00000000	          0.13386660	          0.00000000	         -0.00001953	          0.00000000	          0.00000000	         -4.68225122	          0.00000000	
          2.21000000	         -0.00000675	         -0.00208389	         -0.00006767	          0.00000404	          0.00000000	          0.00000116	         12.98429102	        795.61780068	        -34.00665862	          0.49659766	          0.00000000	          0.13420444	          0.00000000	         -0.00001513	          0.00000000	          0.00000000	         -4.94758092	          0.00000000	
          2.21500000	          0.00022221	         -0.00119336	         -0.00009815	          0.00000315	          0.00000000	          0.00000098	         14.30842263	        799.40283916	        -34.65841125	          0.49830785	          0.00000000	          0.13454111	          0.00000000	         -0.00001112	          0.00000000	          0.00000000	         -5.21071152	          0.00000000	
          2.22000000	          0.00035146	         -0.00052791	         -0.00010994	          0.00000233	          0.00000000	          0.00000079	         15.58521238	        803.97187065	        -35.33167806	          0.50010191	          0.00000000	          0.13487749	          0.00000000	         -0.00000766	          0.00000000	          0.00000000	         -5.47395211	          0.00000000	
          2.22500000	          0.00040655	         -0.00005941	         -0.00010881	          0.00000162	          0.00000000	          0.00000060	         16.81997119	        809.27570431	        -36.01161117	          0.50197789	          0.00000000	          0.13521345	          0.00000000	         -0.00000484	          0.00000000	          0.00000000	         -5.73918416	          0.00000000	
          2.23000000	          0.00040973	          0.00024573	         -0.00009947	          0.00000103	          0.00000000	          0.00000043	         18.01682813	        815.26386648	        -36.68792012	          0.50393485	          0.00000000	          0.13554812	          0.00000000	         -0.00000265	          0.00000000	          0.00000000	         -6.00758042	          0.00000000	
          2.23500000	          0.00037936	          0.00042197	         -0.00008562	          0.00000058	          0.00000000	          0.00000029	         19.17847465	        821.88704323	        -37.35464101	          0.50597112	          0.00000000	          0.13588137	          0.00000000	         -0.00000103	          0.00000000	          0.00000000	         -6.27929405	          0.00000000	
          2.24000000	          0.00032988	          0.00050162	         -0.00006996	          0.00000024	          0.00000000	          0.00000018	         20.30696295	        829.09729806	        -38.00968896	          0.50808393	          0.00000000	          0.13621384	          0.00000000	          0.00000008	          0.00000000	          0.00000000	         -6.55367122	          0.00000000	
          2.24500000	          0.00027207	          0.00051302	         -0.00005439	          0.00000000	          0.00000000	          0.00000009	         21.40460173	        836.84827223	        -38.65390756	          0.51027080	          0.00000000	          0.13654599	          0.00000000	          0.00000079	          0.00000000	          0.00000000	         -6.82973728	          0.00000000	
          2.25000000	          0.00021347	          0.00047976	         -0.00004010	         -0.00000015	          0.00000000	          0.00000003	         22.47339346	        845.09569392	        -39.29140869	          0.51252961	          0.00000000	          0.13687808	          0.00000000	          0.00000119	          0.00000000	          0.00000000	         -7.10611633	          0.00000000	
          2.25500000	          0.00015901	          0.00042049	         -0.00002777	         -0.00000023	          0.00000000	         -0.00000001	         23.51317836	        853.80083707	        -39.93218917	          0.51485721	          0.00000000	          0.13721023	          0.00000000	          0.00000134	          0.00000000	          0.00000000	         -7.38107585	          0.00000000	
          2.26000000	          0.00011151	          0.00034923	         -0.00001766	         -0.00000027	          0.00000000	         -0.00000004	         24.52296215	        862.93045337	        -40.59158175	          0.51724907	          0.00000000	          0.13754295	          0.00000000	          0.00000134	          0.00000000	          0.00000000	         -7.65302986	          0.00000000	
          2.26500000	          0.00007223	          0.00027590	         -0.00000979	         -0.00000027	          0.00000000	         -0.00000005	         25.50334920	        872.45527495	        -41.28670792	          0.51969977	          0.00000000	          0.13787810	          0.00000000	          0.00000123	          0.00000000	          0.00000000	         -7.92122781	          0.00000000	
          2.27000000	          0.00004133	          0.00020706	         -0.00000396	         -0.00000025	          0.00000000	         -0.00000006	         26.45754864	        882.34791136	        -42.03360352	          0.52220312	          0.00000000	          0.13821749	          0.00000000	          0.00000106	          0.00000000	          0.00000000	         -8.18571385	          0.00000000	
